{"title":"Pedro Costa - The End Of A Love Affair - 2003 - DVDRip.x264-HAND","uid":10788609,"size":96528755,"categoryP":"video","categoryS":"movie_clips","magnet":"?xt=urn:btih:5b5cf823335a8f0c41e9bbabf60e3e89d94d4ee2&amp;dn=Pedro+Costa+-+The+End+Of+A+Love+Affair+-+2003+-+DVDRip.x264-HAND&amp;tr=udp%3A%2F%2Ftracker.openbittorrent.com%3A80&amp;tr=udp%3A%2F%2Fopen.demonii.com%3A1337&amp;tr=udp%3A%2F%2Ftracker.coppersurfer.tk%3A6969&amp;tr=udp%3A%2F%2Fexodus.desync.com%3A6969","seeders":2,"leechers":0,"uploader":"rpessoa","files":1,"time":1408232735,"description":"A man is standing at the window, holding a chair. There are wafts of street noise, and occasionally the curtain flutters. A dog is barking. Then, elegiac music sets in, a lavish string arrangement, joined by Billy Holidays love-torn, tragic voice. She is singing Â«The End of a Love AffairÂ», and the entire agony of the end of her life resonates in it. The man at the window has meanwhile sat down on his chair, and the sad insistence of the song portrays his emotions. Is there something like the ghost of a smile flitting over his face? Â«And the smile on my face isnt really a smile at allÂ», Holiday sings, and in the end all that is proven is the manipulative power of the combination of image and sound. \n &lt;a href=&quot;\nhttp://www.imdb.com/title/tt3353136/&quot; rel=&quot;nofollow&quot; target=&quot;_NEW&quot;&gt;\nhttp://www.imdb.com/title/tt3353136/&lt;/a&gt;\n\nGeneral\nUnique ID : 12479988501868902481044391731201795758 (0x9638EF06D7EA932294412342FE366AE)\nComplete name : The.End.Of.A.Love.Affair.2003.DVDRip.x264-HANDJOB.mkv\nFormat : Matroska\nFormat version : Version 2\nFile size : 92.1 MiB\nDuration : 7mn 46s\nOverall bit rate : 1 657 Kbps\nWriting application : HandBrake 0.9.9\nWriting library : libmkv 0.6.5\n\nVideo\nID : 1\nFormat : AVC\nFormat/Info : Advanced Video Codec\nFormat profile : &lt;a class=&quot;__cf_email__&quot; href=&quot;/cdn-cgi/l/email-protection&quot; data-cfemail=&quot;f7bf9e909fb7bbc4d9c6&quot;&gt;[email&amp;#160;protected]&lt;/a&gt;&lt;script cf-hash='f9e31' type=&quot;text/javascript&quot;&gt;\n/* &lt;![CDATA[ */!function(){try{var t=&quot;currentScript&quot;in document?document.currentScript:function(){for(var t=document.getElementsByTagName(&quot;script&quot;),e=t.length;e--;)if(t[e].getAttribute(&quot;cf-hash&quot;))return t[e]}();if(t&amp;&amp;t.previousSibling){var e,r,n,i,c=t.previousSibling,a=c.getAttribute(&quot;data-cfemail&quot;);if(a){for(e=&quot;&quot;,r=parseInt(a.substr(0,2),16),n=2;a.length-n;n+=2)i=parseInt(a.substr(n,2),16)^r,e+=String.fromCharCode(i);e=document.createTextNode(e),c.parentNode.replaceChild(e,c)}}}catch(u){}}();/* ]]&gt; */&lt;/script&gt;\nFormat settings, CABAC : Yes\nFormat settings, ReFrames : 9 frames\nCodec ID : V_MPEG4/ISO/AVC\nDuration : 7mn 46s\nBit rate : 1 432 Kbps\nWidth : 708 pixels\nHeight : 566 pixels\nDisplay aspect ratio : 4:3\nFrame rate : 25.000 fps\nColor space : YUV\nChroma subsampling : 4:2:0\nBit depth : 8 bits\nScan type : Progressive\nBits/(Pixel*Frame) : 0.143\nStream size : 79.6 MiB (86%)\nWriting library : x264 core 130 r2273 b3065e6\nEncoding settings : cabac=1 / ref=9 / deblock=1:-3:-3 / analyse=0x3:0x133 / me=umh / subme=9 / psy=1 / psy_rd=1.00:0.00 / mixed_ref=1 / me_range=24 / chroma_me=1 / trellis=2 / 8x8dct=1 / cqm=0 / deadzone=21,11 / fast_pskip=0 / chroma_qp_offset=-2 / threads=12 / lookahead_threads=1 / sliced_threads=0 / nr=0 / decimate=1 / interlaced=0 / bluray_compat=0 / constrained_intra=0 / bframes=6 / b_pyramid=2 / b_adapt=2 / b_bias=0 / direct=3 / weightb=1 / open_gop=0 / weightp=2 / keyint=250 / keyint_min=25 / scenecut=40 / intra_refresh=0 / rc=crf / mbtree=0 / crf=16.0 / qcomp=0.65 / qpmin=0 / qpmax=69 / qpstep=4 / ip_ratio=1.40 / pb_ratio=1.30 / aq=1:1.00\nLanguage : English\nDefault : Yes\nForced : No\nColor primaries : BT.470-6 System B, BT.470-6 System G, BT.601-6 625, BT.1358 625, BT.1700 625 PAL, BT.1700 625 SECAM\nTransfer characteristics : BT.709-5, BT.1361\nMatrix coefficients : BT.601-6 525, BT.1358 525, BT.1700 NTSC, SMPTE 170M\n\nAudio\nID : 2\nFormat : AC-3\nFormat/Info : Audio Coding 3\nMode extension : CM (complete main)\nCodec ID : A_AC3\nDuration : 7mn 46s\nBit rate mode : Constant\nBit rate : 192 Kbps\nChannel(s) : 2 channels\nChannel positions : Front: L R\nSampling rate : 48.0 KHz\nBit depth : 16 bits\nCompression mode : Lossy\nStream size : 10.7 MiB (12%)\nLanguage : French\nDefault : Yes\nForced : No\n\nThanks to encoder and original uploader.","torrent":{"xt":"urn:btih:5b5cf823335a8f0c41e9bbabf60e3e89d94d4ee2","amp;dn":"Pedro+Costa+-+The+End+Of+A+Love+Affair+-+2003+-+DVDRip.x264-HAND","amp;tr":["udp%3A%2F%2Ftracker.openbittorrent.com%3A80","udp%3A%2F%2Fopen.demonii.com%3A1337","udp%3A%2F%2Ftracker.coppersurfer.tk%3A6969","udp%3A%2F%2Fexodus.desync.com%3A6969"],"infoHash":"5b5cf823335a8f0c41e9bbabf60e3e89d94d4ee2","infoHashBuffer":{"type":"Buffer","data":[91,92,248,35,51,90,143,12,65,233,187,171,246,14,62,137,217,77,78,226]},"announce":[],"urlList":[]}}